<?xml version="1.0" encoding="utf-8"?>
<!-- Generator: Adobe Illustrator 25.4.1, SVG Export Plug-In . SVG Version: 6.00 Build 0)  -->
<svg version="1.1" id="Logos" xmlns="http://www.w3.org/2000/svg" xmlns:xlink="http://www.w3.org/1999/xlink" x="0px" y="0px"
	 viewBox="0 0 1750.31 314.72" style="enable-background:new 0 0 1750.31 314.72;" xml:space="preserve">
<style type="text/css">
	.st0{fill:#239037;}
	.st1{fill:#FFFFFF;}
	.st2{fill:#212449;}
	.st3{fill:#229137;}
</style>
<path class="st0" d="M187.48,97.58c20.7,4.187,34.086,24.362,29.899,45.062c-1.002,4.954-2.977,9.661-5.809,13.848l15.6,15.6
	c20.554-26.14,16.026-63.993-10.114-84.547c-8.557-6.729-18.779-11.012-29.576-12.393V97.58z"/>
<path class="st1" d="M200.87,167c-17.6,11.493-41.184,6.543-52.677-11.057c-4.066-6.226-6.219-13.507-6.193-20.943
	c-0.016-18.145,12.743-33.793,30.52-37.43v-22.4c-32.979,4.085-56.402,34.132-52.316,67.111s34.132,56.402,67.111,52.316
	c10.626-1.316,20.707-5.444,29.205-11.957L200.87,167z"/>
<rect x="273.52" y="66.23" class="st2" width="0.87" height="173.22"/>
<path class="st1" d="M126.08,214.24h-6v-3.86h16.46v3.86h-6V231h-4.43L126.08,214.24z"/>
<path class="st1" d="M145.89,223.61h-3.21V231h-4.4v-20.62h9.65c4.3,0,6.93,2.81,6.93,6.65c0.178,2.863-1.722,5.442-4.51,6.12
	L155,231h-5.05L145.89,223.61z M147.28,214.15h-4.6v5.69h4.6c1.571,0.162,2.976-0.981,3.138-2.552
	c0.162-1.571-0.981-2.976-2.552-3.138C147.671,214.13,147.475,214.13,147.28,214.15z"/>
<path class="st1" d="M171.25,227.45H162l-1.3,3.56h-4.83l8-20.63h5.51l7.97,20.62h-4.8L171.25,227.45z M163.25,223.65h6.84
	l-3.4-9.47L163.25,223.65z"/>
<path class="st1" d="M176.79,220.71c-0.147-5.769,4.41-10.566,10.18-10.714c0.217-0.006,0.434-0.004,0.65,0.004
	c3.644-0.157,7.056,1.786,8.78,5l-3.77,1.85c-0.984-1.848-2.907-3.001-5-3c-3.59,0-6.31,2.88-6.31,6.78s2.72,6.77,6.31,6.77
	c2.096,0.013,4.025-1.144,5-3l3.77,1.83c-1.719,3.227-5.126,5.194-8.78,5.07c-5.768,0.21-10.614-4.294-10.824-10.062
	C176.789,221.062,176.788,220.886,176.79,220.71z"/>
<path class="st1" d="M199.46,224.76c1.716,1.783,4.086,2.787,6.56,2.78c2.41,0,3.59-1.14,3.59-2.32c0-1.54-1.8-2.07-4.18-2.63
	c-3.37-0.77-7.7-1.7-7.7-6.31c0-3.43,3-6.21,7.83-6.21c2.935-0.099,5.797,0.928,8,2.87l-2.45,3.22c-1.618-1.46-3.721-2.266-5.9-2.26
	c-2,0-3,0.87-3,2.11c0,1.39,1.73,1.82,4.11,2.38c3.4,0.77,7.73,1.79,7.73,6.37c0,3.77-2.69,6.62-8.26,6.62
	c-3.242,0.148-6.404-1.037-8.75-3.28L199.46,224.76z"/>
<path class="st1" d="M216.59,210.38H221V231h-4.39L216.59,210.38z"/>
<path class="st1" d="M225.53,224.76c1.712,1.782,4.079,2.787,6.55,2.78c2.42,0,3.59-1.14,3.59-2.32c0-1.54-1.79-2.07-4.17-2.63
	c-3.37-0.77-7.7-1.7-7.7-6.31c0-3.43,3-6.21,7.82-6.21c2.935-0.101,5.798,0.926,8,2.87l-2.44,3.22
	c-1.621-1.461-3.728-2.266-5.91-2.26c-2,0-3,0.87-3,2.11c0,1.39,1.73,1.82,4.11,2.38c3.41,0.77,7.74,1.79,7.74,6.37
	c0,3.77-2.7,6.62-8.26,6.62c-3.243,0.15-6.405-1.035-8.75-3.28L225.53,224.76z"/>
<path class="st1" d="M305.09,125.36c0-24.6,18.6-41.4,42.6-41.4c17.64,0,27.84,9.6,33.48,19.56l-14.64,7.2
	c-3.677-7.035-10.903-11.5-18.84-11.64c-14.52,0-25.08,11.16-25.08,26.28s10.56,26.28,25.08,26.28
	c7.952-0.09,15.202-4.569,18.84-11.64l14.64,7.08c-5.76,10-15.84,19.68-33.48,19.68C323.69,166.76,305.09,150,305.09,125.36z"/>
<path class="st1" d="M382.34,125.36c0-24.12,17.63-41.4,41.75-41.4S466,101.24,466,125.36s-17.64,41.4-41.88,41.4
	S382.34,149.48,382.34,125.36z M448.45,125.36c0-15-9.6-26.28-24.36-26.28s-24.24,11.28-24.24,26.28s9.48,26.28,24.24,26.28
	S448.45,140.24,448.45,125.36z"/>
<path class="st1" d="M544.31,165.32v-56l-22.56,56h-7.44l-22.56-56v56h-17v-80h23.88L518,133.64l19.44-48.36h24v80L544.31,165.32z"
	/>
<path class="st1" d="M574.57,165.32v-80H612c17.4,0,26.88,11.76,26.88,25.8s-9.6,25.8-26.88,25.8h-20.4v28.44L574.57,165.32z
	 M621.49,111.08c0-6.72-5-10.8-11.76-10.8h-18.12v21.6h18.12C616.45,121.88,621.49,117.68,621.49,111.08z"/>
<path class="st1" d="M694.93,165.32L690,151.76h-34.31l-5,13.56h-19.48l31-80h21.36l30.84,80L694.93,165.32z M672.85,102.32
	l-12.48,34.44h25L672.85,102.32z"/>
<path class="st1" d="M714.05,154l9.24-13c6.646,6.929,15.84,10.832,25.44,10.8c9.36,0,13.92-4.32,13.92-8.88
	c0-14.16-46.08-4.44-46.08-34.56c0-13.32,11.52-24.36,30.36-24.36c12.72,0,23.28,3.84,31.2,11.16l-9.48,12.48
	c-6.413-5.68-14.715-8.761-23.28-8.64c-7.32,0-11.4,3.24-11.4,8c0,12.72,46,4.2,46,34.08c0,14.64-10.44,25.68-32,25.68
	C732.53,166.76,721.49,161.6,714.05,154z"/>
<path class="st1" d="M782.24,154l9.24-13c6.646,6.929,15.84,10.832,25.44,10.8c9.36,0,13.92-4.32,13.92-8.88
	c0-14.16-46.08-4.44-46.08-34.56c0-13.32,11.52-24.36,30.36-24.36c12.72,0,23.28,3.84,31.2,11.16l-9.48,12.48
	c-6.413-5.68-14.715-8.761-23.28-8.64c-7.32,0-11.4,3.24-11.4,8c0,12.72,46,4.2,46,34.08c0,14.64-10.44,25.68-32,25.68
	C800.72,166.76,789.68,161.6,782.24,154z"/>
<path class="st1" d="M886.76,165.32v-80h17v80H886.76z"/>
<path class="st1" d="M971.84,165.32l-38.16-52.2v52.2h-17v-80h17.52l37.08,50.28V85.28h17v80L971.84,165.32z"/>
<path class="st1" d="M1001.32,165.32v-80H1058v15h-39.6v16.88h38.76v15h-38.76v33.12L1001.32,165.32z"/>
<path class="st1" d="M1061.8,125.36c0-24.12,17.64-41.4,41.76-41.4s41.88,17.28,41.88,41.4s-17.64,41.4-41.88,41.4
	S1061.8,149.48,1061.8,125.36z M1127.92,125.36c0-15-9.6-26.28-24.36-26.28s-24.24,11.28-24.24,26.28s9.48,26.28,24.24,26.28
	S1127.92,140.24,1127.92,125.36z"/>
<path class="st1" d="M1199.42,165.32l-15.72-28.44h-12.48v28.44h-17v-80h37.44c16.68,0,26.88,10.92,26.88,25.8
	c0,14.16-8.88,21.72-17.52,23.76l18,30.48L1199.42,165.32z M1201.1,111.08c0-6.72-5.16-10.8-12-10.8h-17.88v21.6h17.88
	C1195.94,121.88,1201.1,117.8,1201.1,111.08L1201.1,111.08z"/>
<path class="st1" d="M1297.67,165.32v-56l-22.56,56h-7.44l-22.56-56v56h-17v-80H1252l19.44,48.36l19.44-48.36h24v80H1297.67z"/>
<path class="st1" d="M1382.72,165.32l-4.92-13.56h-34.32l-5,13.56H1319l31-80h21.36l30.83,80H1382.72z M1360.64,102.32l-12.48,34.44
	h25L1360.64,102.32z"/>
<path class="st1" d="M1414.74,165.32v-65h-23.4v-15h63.84v15h-23.28v65H1414.74z"/>
<path class="st1" d="M1460.76,165.32v-80h17v80H1460.76z"/>
<path class="st1" d="M1486.48,125.36c0-24.6,18.6-41.4,42.59-41.4c17.64,0,27.84,9.6,33.48,19.56l-14.64,7.2
	c-3.677-7.035-10.903-11.5-18.84-11.64c-14.52,0-25.07,11.16-25.07,26.28s10.55,26.28,25.07,26.28
	c7.952-0.09,15.202-4.569,18.84-11.64l14.64,7.08c-5.76,10-15.84,19.68-33.48,19.68C1505.08,166.76,1486.48,150,1486.48,125.36z"/>
<path class="st1" d="M1564,154l9.24-13c6.646,6.929,15.84,10.832,25.44,10.8c9.36,0,13.92-4.32,13.92-8.88
	c0-14.16-46.08-4.44-46.08-34.56c0-13.32,11.52-24.36,30.36-24.36c12.72,0,23.28,3.84,31.2,11.16l-9.48,12.48
	c-6.41-5.677-14.708-8.758-23.27-8.64c-7.32,0-11.4,3.24-11.4,8c0,12.72,46,4.2,46,34.08c0,14.64-10.44,25.68-32,25.68
	C1582.49,166.76,1571.45,161.6,1564,154z"/>
<path class="st3" d="M310.56,235.11v-34.78h6.09v34.78H310.56z"/>
<path class="st3" d="M339.82,235.11v-15.75c0-3.91-2-5.21-5.05-5.21c-2.563,0.066-4.949,1.319-6.46,3.39v17.57h-5.46v-25.19h5.46
	v3.44c2.237-2.552,5.456-4.029,8.85-4.06c5.42,0,8.13,2.92,8.13,8.08v17.73H339.82z"/>
<path class="st3" d="M352.33,235.11v-20.39h-4.17v-4.8h4.17v-1.4c0-5.48,3.17-8.71,8-8.71c2.214-0.114,4.38,0.676,6,2.19l-2.13,3.39
	c-0.79-0.737-1.84-1.133-2.92-1.1c-2.13,0-3.48,1.41-3.48,4.23v1.4h5.1v4.8h-5.1v20.39L352.33,235.11z"/>
<path class="st3" d="M364.1,222.49c0-7.2,4.95-13.19,12.92-13.19s13,6,13,13.19s-4.89,13.24-13,13.24S364.1,229.74,364.1,222.49z
	 M384.31,222.49c0-4.43-2.61-8.34-7.29-8.34s-7.24,3.91-7.24,8.34s2.6,8.39,7.24,8.39S384.31,227,384.31,222.49z"/>
<path class="st3" d="M394.31,235.11v-25.19h5.47v3.71c1.939-2.585,4.941-4.158,8.17-4.28v5.42c-0.567-0.109-1.143-0.159-1.72-0.15
	c-2.534,0.113-4.891,1.33-6.45,3.33v17.16L394.31,235.11z"/>
<path class="st3" d="M441.81,235.11v-16.43c0-2.71-1.2-4.53-4.12-4.53c-2.352,0.154-4.503,1.382-5.83,3.33v17.63h-5.46v-16.43
	c0-2.71-1.2-4.53-4.17-4.53c-2.347,0.177-4.48,1.428-5.78,3.39v17.57H411v-25.19h5.47v3.44c1.999-2.488,4.99-3.972,8.18-4.06
	c3.74,0,6,1.87,6.87,4.64c1.922-2.814,5.074-4.539,8.48-4.64c4.63,0,7.23,2.5,7.23,7.61v18.2H441.81z"/>
<path class="st3" d="M468.46,235.11v-2.72c-2.101,2.235-5.065,3.453-8.13,3.34c-4.11,0-8.74-2.76-8.74-8.34
	c0-5.79,4.63-8.19,8.74-8.19c3.39,0,6.3,1.1,8.13,3.24v-3.76c0-2.92-2.4-4.69-5.89-4.69c-2.811-0.004-5.5,1.146-7.44,3.18
	l-2.24-3.81c2.854-2.688,6.65-4.146,10.57-4.06c5.57,0,10.46,2.34,10.46,9.12v16.69H468.46z M468.46,229.37v-3.81
	c-1.485-1.755-3.704-2.717-6-2.6c-3.07,0-5.36,1.77-5.36,4.53s2.29,4.49,5.36,4.49C464.758,232.094,466.977,231.129,468.46,229.37z"
	/>
<path class="st3" d="M480.76,229.27v-14.55h-4.16v-4.8h4.16V203h5.47v6.88h5.1v4.8h-5.1v13.19c0,1.72,0.83,3,2.39,3
	c0.899,0.028,1.775-0.286,2.45-0.88l1.3,4.12c-1,0.93-2.6,1.61-5.15,1.61C483,235.73,480.76,233.44,480.76,229.27z"/>
<path class="st3" d="M494.48,203.46c0.016-1.865,1.525-3.374,3.39-3.39c1.872,0.001,3.389,1.52,3.388,3.392
	c-0.001,1.871-1.517,3.387-3.388,3.388C496.005,206.834,494.496,205.325,494.48,203.46z M495.16,235.11v-25.19h5.47v25.19H495.16z"
	/>
<path class="st3" d="M504.72,222.49c0-7.2,4.95-13.19,12.91-13.19c7.96,0,13,6,13,13.19s-4.89,13.24-13,13.24
	S504.72,229.74,504.72,222.49z M524.92,222.49c0-4.43-2.6-8.34-7.29-8.34s-7.24,3.91-7.24,8.34s2.61,8.39,7.24,8.39
	S524.92,227,524.92,222.49z"/>
<path class="st3" d="M551.9,235.11v-15.75c0-3.91-2-5.21-5-5.21c-2.563,0.066-4.949,1.319-6.46,3.39v17.57h-5.46v-25.19h5.46v3.44
	c2.237-2.552,5.456-4.029,8.85-4.06c5.42,0,8.12,2.92,8.12,8.08v17.73H551.9z"/>
<path class="st3" d="M592.14,235.11v-2.72c-2.096,2.236-5.058,3.454-8.12,3.34c-4.11,0-8.75-2.76-8.75-8.34
	c0-5.79,4.64-8.19,8.75-8.19c3.38,0,6.3,1.1,8.12,3.24v-3.76c0-2.92-2.39-4.69-5.88-4.69c-2.813-0.002-5.505,1.147-7.45,3.18
	l-2.24-3.81c2.858-2.682,6.652-4.14,10.57-4.06c5.57,0,10.47,2.34,10.47,9.12v16.69H592.14z M592.14,229.37v-3.81
	c-1.483-1.758-3.703-2.72-6-2.6c-3.07,0-5.36,1.77-5.36,4.53s2.29,4.49,5.36,4.49C588.438,232.096,590.658,231.13,592.14,229.37z"/>
<path class="st3" d="M620.3,235.11v-15.75c0-3.91-2-5.21-5-5.21c-2.56,0.066-4.944,1.319-6.45,3.39v17.57h-5.47v-25.19h5.47v3.44
	c2.234-2.557,5.455-4.035,8.85-4.06c5.41,0,8.12,2.92,8.12,8.08v17.73H620.3z"/>
<path class="st3" d="M649.36,235.11v-3.44c-1.908,2.539-4.894,4.041-8.07,4.06c-6.45,0-11.19-4.9-11.19-13.19
	c0-8.13,4.69-13.24,11.19-13.24c3.191,0.017,6.185,1.546,8.07,4.12v-13.09h5.47v34.78H649.36z M649.36,227.55v-10
	c-1.516-2.086-3.922-3.341-6.5-3.39c-4.32,0-7.08,3.49-7.08,8.39s2.76,8.34,7.08,8.34C645.43,230.857,647.837,229.621,649.36,227.55
	z"/>
<path class="st3" d="M674.4,235.11v-34.78h6.1v29.41h15.3v5.37H674.4z"/>
<path class="st3" d="M697.86,222.49c0-7.2,4.94-13.19,12.91-13.19s13,6,13,13.19s-4.89,13.24-13,13.24S697.86,229.74,697.86,222.49z
	 M718.06,222.49c0-4.43-2.6-8.34-7.29-8.34s-7.24,3.91-7.24,8.34s2.61,8.39,7.24,8.39S718.06,227,718.06,222.49z"/>
<path class="st3" d="M726.57,222.49c0-7.61,5.37-13.19,13-13.19c4.89,0,7.86,2.08,9.63,4.48l-3.59,3.34
	c-1.28-1.931-3.465-3.065-5.78-3c-4.58,0-7.6,3.44-7.6,8.34s3,8.39,7.6,8.39c2.31,0.042,4.485-1.087,5.78-3l3.59,3.34
	c-1.77,2.4-4.74,4.48-9.63,4.48C731.94,235.73,726.57,230.15,726.57,222.49z"/>
<path class="st3" d="M768.34,235.11v-2.72c-2.097,2.234-5.058,3.451-8.12,3.34c-4.12,0-8.75-2.76-8.75-8.34
	c0-5.79,4.63-8.19,8.75-8.19c3.38,0,6.3,1.1,8.12,3.24v-3.76c0-2.92-2.4-4.69-5.88-4.69c-2.814-0.004-5.507,1.145-7.45,3.18
	l-2.24-3.81c2.858-2.682,6.652-4.14,10.57-4.06c5.57,0,10.47,2.34,10.47,9.12v16.69H768.34z M768.34,229.37v-3.81
	c-1.483-1.758-3.703-2.72-6-2.6c-3.07,0-5.36,1.77-5.36,4.53s2.29,4.49,5.36,4.49C764.638,232.096,766.858,231.13,768.34,229.37z"/>
<path class="st3" d="M780.65,229.27v-14.55h-4.17v-4.8h4.17V203h5.46v6.88h5.1v4.8h-5.1v13.19c0,1.72,0.83,3,2.4,3
	c0.912,0.047,1.806-0.265,2.49-0.87l1.3,4.12c-1,0.93-2.6,1.61-5.15,1.61C782.88,235.73,780.65,233.44,780.65,229.27z"/>
<path class="st3" d="M794.37,203.46c0-1.872,1.518-3.39,3.39-3.39c1.872,0,3.39,1.518,3.39,3.39c0,1.872-1.518,3.39-3.39,3.39
	c-0.003,0-0.007,0-0.01,0C795.886,206.834,794.381,205.324,794.37,203.46z M795.04,235.11v-25.19h5.47v25.19H795.04z"/>
<path class="st3" d="M804.6,222.49c0-7.2,4.95-13.19,12.91-13.19s13,6,13,13.19s-4.9,13.24-13,13.24S804.6,229.74,804.6,222.49z
	 M824.8,222.49c0-4.43-2.6-8.34-7.29-8.34s-7.23,3.91-7.23,8.34s2.6,8.39,7.23,8.39S824.8,227,824.8,222.49z"/>
<path class="st3" d="M851.78,235.11v-15.75c0-3.91-2-5.21-5-5.21c-2.563,0.066-4.949,1.319-6.46,3.39v17.57h-5.46v-25.19h5.46v3.44
	c2.239-2.555,5.463-4.032,8.86-4.06c5.41,0,8.12,2.92,8.12,8.08v17.73H851.78z"/>
<path class="st3" d="M876.82,235.11v-34.78h6.09v34.78H876.82z"/>
<path class="st3" d="M906.08,235.11v-15.75c0-3.91-2-5.21-5.05-5.21c-2.56,0.066-4.944,1.319-6.45,3.39v17.57h-5.47v-25.19h5.47
	v3.44c2.234-2.557,5.455-4.035,8.85-4.06c5.41,0,8.12,2.92,8.12,8.08v17.73H906.08z"/>
<path class="st3" d="M915.3,231.82l2.5-4c2.314,2.184,5.349,3.444,8.53,3.54c3.28,0,4.95-1.4,4.95-3.38c0-5-15.2-1.41-15.2-11.06
	c0-4.12,3.54-7.66,9.89-7.66c3.591-0.084,7.083,1.179,9.79,3.54l-2.29,3.86c-1.965-1.983-4.66-3.068-7.45-3
	c-2.86,0-4.68,1.3-4.68,3.07c0,4.49,15.2,1.15,15.2,11.16c0,4.43-3.7,7.82-10.47,7.82C922.111,235.862,918.248,234.466,915.3,231.82
	z"/>
<path class="st3" d="M940,203.46c0.005-1.867,1.523-3.376,3.39-3.37c1.867,0.006,3.375,1.523,3.37,3.39
	c-0.005,1.863-1.517,3.37-3.38,3.37C941.516,206.834,940.011,205.324,940,203.46z M940.67,235.11v-25.19h5.47v25.19H940.67z"/>
<path class="st3" d="M951.64,241.57l2.55-4c2,2.35,4.63,3.23,8,3.23c3.59,0,7.45-1.67,7.45-6.83v-3
	c-1.889,2.576-4.876,4.119-8.07,4.17c-6.41,0-11.14-4.64-11.14-12.93c0-8.14,4.68-12.93,11.14-12.93
	c3.194,0.006,6.192,1.537,8.07,4.12v-3.5h5.46v23.9c0,9.08-6.71,11.53-12.91,11.53C957.88,245.33,954.71,244.39,951.64,241.57z
	 M969.64,226.92v-9.38c-1.5-2.083-3.893-3.339-6.46-3.39c-4.32,0-7.08,3.23-7.08,8.08s2.76,8.08,7.08,8.08
	c2.552-0.063,4.928-1.318,6.42-3.39L969.64,226.92z"/>
<path class="st3" d="M997.85,235.11v-15.85c0-3.91-2-5.11-5.1-5.11c-2.554,0.09-4.928,1.338-6.45,3.39v17.57h-5.47v-34.78h5.47v13
	c2.255-2.556,5.491-4.032,8.9-4.06c5.41,0,8.12,2.81,8.12,8v17.83L997.85,235.11z"/>
<path class="st3" d="M1010.3,229.27v-14.55h-4.17v-4.8h4.17V203h5.46v6.88h5.11v4.8h-5.11v13.19c0,1.72,0.84,3,2.4,3
	c0.896,0.031,1.77-0.284,2.44-0.88l1.31,4.12c-1,0.93-2.61,1.61-5.16,1.61C1012.54,235.73,1010.3,233.44,1010.3,229.27z"/>
<path class="st3" d="M1023.4,231.82l2.5-4c2.317,2.187,5.356,3.446,8.54,3.54c3.28,0,4.94-1.4,4.94-3.38c0-5-15.2-1.41-15.2-11.06
	c0-4.12,3.54-7.66,9.89-7.66c3.591-0.084,7.083,1.179,9.79,3.54l-2.29,3.86c-1.965-1.983-4.66-3.068-7.45-3
	c-2.86,0-4.68,1.3-4.68,3.07c0,4.49,15.2,1.15,15.2,11.16c0,4.43-3.7,7.82-10.46,7.82
	C1030.218,235.863,1026.351,234.468,1023.4,231.82z"/>
</svg>
